<mxfile host="65bd71144e">
    <diagram id="cOPPHnaynSb4PC9Ppda5" name="ページ1">
        <mxGraphModel dx="1489" dy="449" grid="1" gridSize="10" guides="1" tooltips="1" connect="1" arrows="1" fold="1" page="1" pageScale="1" pageWidth="827" pageHeight="1169" math="0" shadow="0">
            <root>
                <mxCell id="0"/>
                <mxCell id="1" parent="0"/>
                <mxCell id="2" value="メニュー&lt;br&gt;　・&lt;u&gt;ログイン&lt;/u&gt;&lt;br&gt;　・&lt;u&gt;ユーザー登録&lt;br&gt;&lt;br&gt;&lt;br&gt;&lt;br&gt;&lt;/u&gt;" style="rounded=0;whiteSpace=wrap;html=1;align=left;" parent="1" vertex="1">
                    <mxGeometry x="-715" y="42" width="180" height="130" as="geometry"/>
                </mxCell>
                <mxCell id="3" value="ユーザー登録&lt;br&gt;　ユーザーID&lt;br&gt;　パスワード&lt;br&gt;&lt;br&gt;　氏名(漢字)&lt;br&gt;　氏名(カナ)&lt;br&gt;&lt;br&gt;　性別&lt;br&gt;&lt;br&gt;　メールアドレス&lt;br&gt;　電話&lt;br&gt;&lt;br&gt;" style="rounded=0;whiteSpace=wrap;html=1;align=left;" parent="1" vertex="1">
                    <mxGeometry x="-715" y="213" width="180" height="205" as="geometry"/>
                </mxCell>
                <mxCell id="4" value="XXXXXXX" style="text;html=1;strokeColor=default;fillColor=none;align=center;verticalAlign=middle;whiteSpace=wrap;rounded=0;" parent="1" vertex="1">
                    <mxGeometry x="-623" y="238" width="80" height="21" as="geometry"/>
                </mxCell>
                <mxCell id="5" value="●●●●●●●●" style="text;html=1;strokeColor=default;fillColor=none;align=center;verticalAlign=middle;whiteSpace=wrap;rounded=0;" parent="1" vertex="1">
                    <mxGeometry x="-623" y="260" width="80" height="21" as="geometry"/>
                </mxCell>
                <mxCell id="6" value="確認" style="text;html=1;strokeColor=default;fillColor=none;align=center;verticalAlign=middle;whiteSpace=wrap;rounded=0;" parent="1" vertex="1">
                    <mxGeometry x="-591" y="394" width="48" height="21" as="geometry"/>
                </mxCell>
                <mxCell id="7" value="ユーザー登録成功&lt;br&gt;　ようこそ{ユーザーID}さん&lt;br&gt;　&lt;u&gt;JAVAクイズ(10問)へ&lt;/u&gt;&lt;br&gt;　&lt;u&gt;トップへ&lt;br&gt;&lt;br&gt;&lt;br&gt;&lt;/u&gt;" style="rounded=0;whiteSpace=wrap;html=1;align=left;" parent="1" vertex="1">
                    <mxGeometry x="-380" y="41" width="180" height="130" as="geometry"/>
                </mxCell>
                <mxCell id="8" value="" style="endArrow=classic;html=1;exitX=0;exitY=0.5;exitDx=0;exitDy=0;entryX=1;entryY=0.5;entryDx=0;entryDy=0;" parent="1" source="7" target="2" edge="1">
                    <mxGeometry width="50" height="50" relative="1" as="geometry">
                        <mxPoint x="-489" y="240" as="sourcePoint"/>
                        <mxPoint x="-439" y="190" as="targetPoint"/>
                        <Array as="points"/>
                    </mxGeometry>
                </mxCell>
                <mxCell id="9" value="「トップへ」をクリック" style="text;html=1;strokeColor=none;fillColor=none;align=center;verticalAlign=middle;whiteSpace=wrap;rounded=0;" parent="1" vertex="1">
                    <mxGeometry x="-536" y="81" width="160" height="30" as="geometry"/>
                </mxCell>
                <mxCell id="10" value="「ユーザー登録」をクリック" style="text;html=1;strokeColor=none;fillColor=none;align=center;verticalAlign=middle;whiteSpace=wrap;rounded=0;" parent="1" vertex="1">
                    <mxGeometry x="-626" y="179" width="160" height="30" as="geometry"/>
                </mxCell>
                <mxCell id="11" value="" style="endArrow=classic;html=1;exitX=0.5;exitY=1;exitDx=0;exitDy=0;entryX=0.5;entryY=0;entryDx=0;entryDy=0;" parent="1" source="2" target="3" edge="1">
                    <mxGeometry width="50" height="50" relative="1" as="geometry">
                        <mxPoint x="-503" y="243" as="sourcePoint"/>
                        <mxPoint x="-623" y="263" as="targetPoint"/>
                    </mxGeometry>
                </mxCell>
                <mxCell id="12" value="「確認」をクリック" style="text;html=1;strokeColor=none;fillColor=none;align=center;verticalAlign=middle;whiteSpace=wrap;rounded=0;" parent="1" vertex="1">
                    <mxGeometry x="-543" y="311" width="160" height="30" as="geometry"/>
                </mxCell>
                <mxCell id="14" value="トップ画面" style="text;html=1;strokeColor=none;fillColor=none;align=center;verticalAlign=middle;whiteSpace=wrap;rounded=0;" parent="1" vertex="1">
                    <mxGeometry x="-712" y="18" width="160" height="30" as="geometry"/>
                </mxCell>
                <mxCell id="15" value="ユーザー登録画面" style="text;html=1;strokeColor=none;fillColor=none;align=center;verticalAlign=middle;whiteSpace=wrap;rounded=0;" parent="1" vertex="1">
                    <mxGeometry x="-690" y="417" width="160" height="30" as="geometry"/>
                </mxCell>
                <mxCell id="16" value="ユーザー登録成功画面" style="text;html=1;strokeColor=none;fillColor=none;align=center;verticalAlign=middle;whiteSpace=wrap;rounded=0;" parent="1" vertex="1">
                    <mxGeometry x="-366" y="16" width="160" height="30" as="geometry"/>
                </mxCell>
                <mxCell id="17" value="「中止」をクリック&lt;br&gt;（「トップ」に戻る）" style="text;html=1;strokeColor=none;fillColor=none;align=center;verticalAlign=middle;whiteSpace=wrap;rounded=0;" parent="1" vertex="1">
                    <mxGeometry x="-816" y="420" width="160" height="30" as="geometry"/>
                </mxCell>
                <mxCell id="18" value="" style="endArrow=classic;html=1;exitX=-0.006;exitY=0.902;exitDx=0;exitDy=0;entryX=0;entryY=0.5;entryDx=0;entryDy=0;exitPerimeter=0;" parent="1" source="3" target="2" edge="1">
                    <mxGeometry width="50" height="50" relative="1" as="geometry">
                        <mxPoint x="-701" y="376" as="sourcePoint"/>
                        <mxPoint x="-699" y="346" as="targetPoint"/>
                        <Array as="points">
                            <mxPoint x="-739" y="398"/>
                            <mxPoint x="-739" y="107"/>
                        </Array>
                    </mxGeometry>
                </mxCell>
                <mxCell id="19" value="○男性　○女性" style="text;html=1;strokeColor=none;fillColor=none;align=center;verticalAlign=middle;whiteSpace=wrap;rounded=0;" parent="1" vertex="1">
                    <mxGeometry x="-623" y="325" width="80" height="21" as="geometry"/>
                </mxCell>
                <mxCell id="20" value="XXXXXXX" style="text;html=1;strokeColor=default;fillColor=none;align=center;verticalAlign=middle;whiteSpace=wrap;rounded=0;" parent="1" vertex="1">
                    <mxGeometry x="-623" y="280" width="80" height="21" as="geometry"/>
                </mxCell>
                <mxCell id="21" value="&lt;u&gt;中止&lt;/u&gt;" style="text;html=1;strokeColor=none;fillColor=none;align=center;verticalAlign=middle;whiteSpace=wrap;rounded=0;" parent="1" vertex="1">
                    <mxGeometry x="-631" y="394" width="48" height="21" as="geometry"/>
                </mxCell>
                <mxCell id="22" value="XXXXXXX" style="text;html=1;strokeColor=default;fillColor=none;align=center;verticalAlign=middle;whiteSpace=wrap;rounded=0;" parent="1" vertex="1">
                    <mxGeometry x="-623" y="368" width="80" height="21" as="geometry"/>
                </mxCell>
                <mxCell id="23" value="XXXXXXX" style="text;html=1;strokeColor=default;fillColor=none;align=center;verticalAlign=middle;whiteSpace=wrap;rounded=0;" parent="1" vertex="1">
                    <mxGeometry x="-623" y="304" width="80" height="21" as="geometry"/>
                </mxCell>
                <mxCell id="24" value="XXXXXXX" style="text;html=1;strokeColor=default;fillColor=none;align=center;verticalAlign=middle;whiteSpace=wrap;rounded=0;" parent="1" vertex="1">
                    <mxGeometry x="-623" y="345" width="80" height="21" as="geometry"/>
                </mxCell>
                <mxCell id="26" value="この内容でユーザー登録しても&lt;br&gt;よろしいですか？&lt;br&gt;&lt;br&gt;　ユーザーID　　XXXXXXX&lt;br&gt;　パスワード　　●●●●●●●●&lt;br&gt;　氏名(漢字)　　 XXXXXXX&lt;br&gt;　氏名(カナ)&amp;nbsp; &amp;nbsp; &amp;nbsp; &amp;nbsp; XXXXXXX&lt;br&gt;　性別&amp;nbsp; &amp;nbsp; &amp;nbsp; &amp;nbsp; &amp;nbsp; &amp;nbsp; &amp;nbsp; &amp;nbsp; &amp;nbsp; ●男性　○女性&lt;br&gt;　メールアドレス XXXXXXX&lt;br&gt;　電話&amp;nbsp; &amp;nbsp; &amp;nbsp; &amp;nbsp; &amp;nbsp; &amp;nbsp; &amp;nbsp; &amp;nbsp; &amp;nbsp; &amp;nbsp;XXXXXXX&lt;br&gt;&lt;br&gt;" style="rounded=0;whiteSpace=wrap;html=1;align=left;" parent="1" vertex="1">
                    <mxGeometry x="-379" y="213" width="180" height="205" as="geometry"/>
                </mxCell>
                <mxCell id="27" value="&lt;u&gt;中止&lt;/u&gt;" style="text;html=1;strokeColor=none;fillColor=none;align=center;verticalAlign=middle;whiteSpace=wrap;rounded=0;" parent="1" vertex="1">
                    <mxGeometry x="-295" y="394" width="48" height="21" as="geometry"/>
                </mxCell>
                <mxCell id="28" value="登録" style="text;html=1;strokeColor=default;fillColor=none;align=center;verticalAlign=middle;whiteSpace=wrap;rounded=0;" parent="1" vertex="1">
                    <mxGeometry x="-255" y="394" width="48" height="21" as="geometry"/>
                </mxCell>
                <mxCell id="29" value="ユーザー登録確認画面" style="text;html=1;strokeColor=none;fillColor=none;align=center;verticalAlign=middle;whiteSpace=wrap;rounded=0;" parent="1" vertex="1">
                    <mxGeometry x="-380" y="417" width="160" height="30" as="geometry"/>
                </mxCell>
                <mxCell id="30" value="「登録」をクリック&lt;br&gt;（ユーザー登録成功）" style="text;html=1;strokeColor=none;fillColor=none;align=center;verticalAlign=middle;whiteSpace=wrap;rounded=0;" parent="1" vertex="1">
                    <mxGeometry x="-362" y="176" width="160" height="30" as="geometry"/>
                </mxCell>
                <mxCell id="31" value="" style="endArrow=classic;html=1;exitX=0.5;exitY=0;exitDx=0;exitDy=0;entryX=0.5;entryY=1;entryDx=0;entryDy=0;" parent="1" source="26" target="7" edge="1">
                    <mxGeometry width="50" height="50" relative="1" as="geometry">
                        <mxPoint x="-509" y="240" as="sourcePoint"/>
                        <mxPoint x="-459" y="190" as="targetPoint"/>
                    </mxGeometry>
                </mxCell>
                <mxCell id="32" value="" style="endArrow=classic;html=1;exitX=0;exitY=0.25;exitDx=0;exitDy=0;entryX=1;entryY=0.815;entryDx=0;entryDy=0;entryPerimeter=0;" parent="1" source="26" target="2" edge="1">
                    <mxGeometry width="50" height="50" relative="1" as="geometry">
                        <mxPoint x="-509" y="240" as="sourcePoint"/>
                        <mxPoint x="-419" y="20" as="targetPoint"/>
                        <Array as="points">
                            <mxPoint x="-419" y="264"/>
                            <mxPoint x="-419" y="148"/>
                        </Array>
                    </mxGeometry>
                </mxCell>
                <mxCell id="33" value="「中止」をクリック&lt;br&gt;（「トップ」に戻る）" style="text;html=1;strokeColor=none;fillColor=none;align=center;verticalAlign=middle;whiteSpace=wrap;rounded=0;" parent="1" vertex="1">
                    <mxGeometry x="-530" y="223" width="160" height="30" as="geometry"/>
                </mxCell>
                <mxCell id="34" value="" style="endArrow=classic;html=1;exitX=1;exitY=0.75;exitDx=0;exitDy=0;entryX=0;entryY=0.75;entryDx=0;entryDy=0;" parent="1" edge="1">
                    <mxGeometry width="50" height="50" relative="1" as="geometry">
                        <mxPoint x="-535" y="391.75" as="sourcePoint"/>
                        <mxPoint x="-379" y="391.75" as="targetPoint"/>
                    </mxGeometry>
                </mxCell>
                <mxCell id="35" value="ユーザーIDが登録済み&lt;br&gt;かどうかをチェック&lt;br&gt;OKなら&lt;br&gt;ユーザー登録確認画面へ&lt;br&gt;NGなら&lt;br&gt;【ユーザーIDは登録済み】&lt;br&gt;を表示する" style="text;html=1;strokeColor=none;fillColor=none;align=center;verticalAlign=middle;whiteSpace=wrap;rounded=0;" parent="1" vertex="1">
                    <mxGeometry x="-543" y="334" width="160" height="102" as="geometry"/>
                </mxCell>
                <mxCell id="36" style="edgeStyle=none;html=1;" parent="1" edge="1">
                    <mxGeometry relative="1" as="geometry">
                        <mxPoint x="-537" y="439" as="sourcePoint"/>
                        <mxPoint x="-518" y="423" as="targetPoint"/>
                        <Array as="points">
                            <mxPoint x="-518" y="439"/>
                            <mxPoint x="-497" y="439"/>
                            <mxPoint x="-497" y="423"/>
                        </Array>
                    </mxGeometry>
                </mxCell>
            </root>
        </mxGraphModel>
    </diagram>
</mxfile>